<?xml version="1.0" encoding="utf-8"?>
<!-- Generator: Adobe Illustrator 18.0.0, SVG Export Plug-In . SVG Version: 6.00 Build 0)  -->
<!DOCTYPE svg PUBLIC "-//W3C//DTD SVG 1.1//EN" "http://www.w3.org/Graphics/SVG/1.1/DTD/svg11.dtd">
<svg version="1.1" id="图层_1" xmlns="http://www.w3.org/2000/svg" xmlns:xlink="http://www.w3.org/1999/xlink" x="0px" y="0px"
	 viewBox="0 0 250 120" enable-background="new 0 0 250 120" xml:space="preserve">
<g>
	<g>
		<text transform="matrix(1 0 0 1 103.5442 92.8613)" fill="#A0806A" font-family="'FZLTXHK'" font-size="18" letter-spacing="3">我的</text>
	</g>
	<g>
		
			<path fill-rule="evenodd" clip-rule="evenodd" fill="none" stroke="#A0806A" stroke-width="3" stroke-linecap="round" stroke-linejoin="round" stroke-miterlimit="10" d="
			M140.8,65.1h-34.4c-2,0-3.4-2.3-3.1-4.8l3.4-25.7c0.3-2,1.6-3.4,3.1-3.4h27.6c1.5,0,2.8,1.4,3.1,3.4l3.4,25.7
			C144.3,62.9,142.8,65.1,140.8,65.1z"/>
		
			<path fill-rule="evenodd" clip-rule="evenodd" fill="none" stroke="#A0806A" stroke-width="3" stroke-linecap="round" stroke-linejoin="round" stroke-miterlimit="10" d="
			M115.5,37.4V27c0-4.5,3.7-8.2,8.2-8.2h0c4.5,0,8.2,3.7,8.2,8.2v10.5"/>
		<circle fill="#A0806A" cx="115.5" cy="37.4" r="2.2"/>
		<circle fill="#A0806A" cx="131.8" cy="37.4" r="2.2"/>
	</g>
</g>
</svg>
