<?xml version="1.0" encoding="utf-8"?>
<!-- Generator: Adobe Illustrator 21.0.0, SVG Export Plug-In . SVG Version: 6.00 Build 0)  -->
<svg version="1.1" id="图层_1" xmlns="http://www.w3.org/2000/svg" xmlns:xlink="http://www.w3.org/1999/xlink" x="0px" y="0px"
	 viewBox="0 0 150 150" style="enable-background:new 0 0 150 150;" xml:space="preserve">
<style type="text/css">
	.st0{fill:#A0806A;}
	.st1{fill-rule:evenodd;clip-rule:evenodd;fill:#A0806A;}
	.st2{fill:none;}
</style>
<g>
	<g>
		<g>
			<path class="st0" d="M98.4,76.7c-0.3,0-0.7-0.1-1-0.3l-22.7-19l-22.2,19c-0.6,0.5-1.6,0.5-2.1-0.2c-0.5-0.6-0.5-1.6,0.2-2.1
				l23.2-19.8c0.6-0.5,1.4-0.5,1.9,0L99.4,74c0.6,0.5,0.7,1.5,0.2,2.1C99.3,76.5,98.9,76.7,98.4,76.7z"/>
		</g>
		<g>
			<path class="st0" d="M92.3,96.1H80.1c-0.8,0-1.5-0.7-1.5-1.5v-18h-6.7v18c0,0.8-0.7,1.5-1.5,1.5H57.7c-0.8,0-1.5-0.7-1.5-1.5
				V75.2c0-0.8,0.7-1.5,1.5-1.5s1.5,0.7,1.5,1.5v18h9.7v-18c0-0.8,0.7-1.5,1.5-1.5h9.7c0.8,0,1.5,0.7,1.5,1.5v18h9.2v-18
				c0-0.8,0.7-1.5,1.5-1.5s1.5,0.7,1.5,1.5v19.5C93.8,95.5,93.1,96.1,92.3,96.1z"/>
		</g>
		<g>
			<path class="st0" d="M83.4,58.1h8.2c0.5,0,0.9,0.4,0.9,0.9v6.8c0,0.2-0.2,0.2-0.3,0.1l-9-7.5C83.2,58.4,83.2,58.1,83.4,58.1z"/>
		</g>
	</g>
</g>
</svg>
