<?xml version="1.0" encoding="utf-8"?>
<!-- Generator: Adobe Illustrator 21.0.0, SVG Export Plug-In . SVG Version: 6.00 Build 0)  -->
<svg version="1.1" id="图层_1" xmlns="http://www.w3.org/2000/svg" xmlns:xlink="http://www.w3.org/1999/xlink" x="0px" y="0px"
	 viewBox="0 0 100 100" style="enable-background:new 0 0 100 100;" xml:space="preserve">
<style type="text/css">
	.st0{fill:#A0806A;}
	.st1{fill:none;stroke:#A0806A;stroke-width:3;stroke-miterlimit:10;}
	.st2{fill:#A0806A;stroke:#A0806A;stroke-miterlimit:10;}
	.st3{fill:none;stroke:#A0806A;stroke-width:2.6;stroke-miterlimit:10;}
	.st4{fill:none;}
</style>
<g>
	<path class="st0" d="M28.1,68.7V27.5h44.7v41.2H28.1z M30.4,66.4h40.1V29.8H30.4v10.1h35.4v16.4H30.4V66.4z M58.8,54h4.7v-4.7h-4.7
		V54z M51.8,54h4.7v-4.7h-4.7V54z M44.7,54h4.7v-4.7h-4.7V54z M30.4,54h12V42.2h-12V54z M58.8,47h4.7v-4.7h-4.7V47z M51.8,47h4.7
		v-4.7h-4.7V47z M44.7,47h4.7v-4.7h-4.7V47z"/>
	<path class="st0" d="M70.5,79.3v-3.5H30.4v3.5h-9.3V20.5h58.8v58.8H70.5z M72.8,77h4.7V22.8H23.4V77h4.7v-3.5h44.7V77z"/>
	<circle class="st0" cx="36.4" cy="48.1" r="1.2"/>
</g>
</svg>
