<?xml version="1.0" encoding="utf-8"?>
<!-- Generator: Adobe Illustrator 21.0.0, SVG Export Plug-In . SVG Version: 6.00 Build 0)  -->
<svg version="1.1" id="图层_1" xmlns="http://www.w3.org/2000/svg" xmlns:xlink="http://www.w3.org/1999/xlink" x="0px" y="0px"
	 viewBox="0 0 100 100" style="enable-background:new 0 0 100 100;" xml:space="preserve">
<style type="text/css">
	.st0{fill:#A0806A;}
	.st1{fill:none;stroke:#A0806A;stroke-width:3;stroke-miterlimit:10;}
	.st2{fill:#A0806A;stroke:#A0806A;stroke-miterlimit:10;}
	.st3{fill:none;stroke:#A0806A;stroke-width:2.6;stroke-miterlimit:10;}
	.st4{fill:none;}
</style>
<g>
	<path class="st0" d="M22.4,72.6V26.9h57.2v32.5L66.4,72.6H22.4z M37.3,70.2h27.4V57.7h12.5V41.8H37.3V70.2z M24.8,70.2h10.1V41.8
		H24.8V70.2z M67.1,68.5l8.4-8.4h-8.4V68.5z M37.3,39.4h39.9V29.3H37.3V39.4z M24.8,39.4h10.1V29.3H24.8V39.4z"/>
	<path class="st0" d="M22.9,72.1V27.4h56.2v31.8L66.2,72.1H22.9z M36.8,70.7h28.4V58.2h12.5V41.3H36.8V70.7z M24.3,70.7h11.1V41.3
		H24.3V70.7z M66.6,69.7l10.1-10.1H66.6V69.7z M36.8,39.9h40.9V28.8H36.8V39.9z M24.3,39.9h11.1V28.8H24.3V39.9z"/>
</g>
</svg>
