<?xml version="1.0" encoding="utf-8"?>
<!-- Generator: Adobe Illustrator 21.0.0, SVG Export Plug-In . SVG Version: 6.00 Build 0)  -->
<svg version="1.1" id="图层_1" xmlns="http://www.w3.org/2000/svg" xmlns:xlink="http://www.w3.org/1999/xlink" x="0px" y="0px"
	 viewBox="0 0 100 100" style="enable-background:new 0 0 100 100;" xml:space="preserve">
<style type="text/css">
	.st0{fill:#A0806A;}
	.st1{fill:none;stroke:#A0806A;stroke-width:3;stroke-miterlimit:10;}
	.st2{fill:#A0806A;stroke:#A0806A;stroke-miterlimit:10;}
	.st3{fill:none;stroke:#A0806A;stroke-width:2.6;stroke-miterlimit:10;}
	.st4{fill:none;}
</style>
<g>
	<polygon class="st2" points="63.4,29.4 60.7,23.4 47.7,29.4 43.5,29.4 61.5,21.1 65.3,29.4 	"/>
	<circle class="st2" cx="59" cy="52.7" r="1.3"/>
	<path class="st2" d="M31.6,72.3c-3,0-5.5-2.5-5.5-5.5V39.1c0-3,2.5-5.5,5.5-5.5h37.2c3,0,5.5,2.5,5.5,5.5v5.4h3
		c0.5,0,0.9,0.4,0.9,0.9v15.1c0,0.5-0.4,0.9-0.9,0.9h-3v5.4c0,3-2.5,5.5-5.5,5.5H31.6z M31.6,35.4c-2.1,0-3.8,1.7-3.8,3.8v27.6
		c0,2.1,1.7,3.8,3.8,3.8h37.2c2.1,0,3.8-1.7,3.8-3.8v-5.4H56.9c-3,0-5.5-2.5-5.5-5.5V50c0-3,2.5-5.5,5.5-5.5h15.7v-5.4
		c0-2.1-1.7-3.8-3.8-3.8H31.6z M56.9,46.3c-2.1,0-3.8,1.7-3.8,3.8v5.9c0,2.1,1.7,3.8,3.8,3.8h19.6V46.3H56.9z"/>
</g>
</svg>
