<?xml version="1.0" encoding="utf-8"?>
<!-- Generator: Adobe Illustrator 21.0.0, SVG Export Plug-In . SVG Version: 6.00 Build 0)  -->
<svg version="1.1" id="图层_1" xmlns="http://www.w3.org/2000/svg" xmlns:xlink="http://www.w3.org/1999/xlink" x="0px" y="0px"
	 viewBox="0 0 100 100" style="enable-background:new 0 0 100 100;" xml:space="preserve">
<style type="text/css">
	.st0{fill:#A0806A;}
	.st1{fill:none;stroke:#A0806A;stroke-width:3;stroke-miterlimit:10;}
	.st2{fill:#A0806A;stroke:#A0806A;stroke-miterlimit:10;}
	.st3{fill:none;stroke:#A0806A;stroke-width:2.6;stroke-miterlimit:10;}
	.st4{fill:none;}
</style>
<g>
	<g>
		<path class="st4" d="M60.6,58.1c-1,0-1.9-0.4-2.6-1.1c-0.9-0.9-1.3-2.3-0.9-3.6c0.5-1.8,2.1-2.6,3.4-2.6c1,0,1.9,0.4,2.6,1.1
			c0.9,0.9,1.3,2.3,0.9,3.6c-0.3,1.2-1.3,2.1-2.4,2.4C61.3,58,61,58.1,60.6,58.1L60.6,58.1z"/>
		<path class="st0" d="M69,68.1c-1.3-3.5-4.6-5.8-8.4-5.8c-3.8,0-7.1,2.3-8.4,5.8h-3.2c0.9-3.1,2.9-5.7,5.8-7.3l0.7-0.4L55,59.8
			c-1.9-2-2.6-4.8-1.9-7.5c0.9-3.4,3.9-5.7,7.5-5.7c2.1,0,4,0.8,5.5,2.3c2,2,2.7,4.8,2,7.6c-0.3,1.2-1,2.4-1.8,3.3l-0.5,0.6l0.7,0.4
			c2.8,1.6,4.9,4.2,5.7,7.3H69z M60.6,49.7c-2.2,0-4.1,1.4-4.6,3.5c-0.5,1.7,0,3.5,1.2,4.7c0.9,0.9,2.1,1.4,3.4,1.4
			c0.4,0,0.9-0.1,1.3-0.2c1.6-0.4,2.9-1.7,3.3-3.3c0.5-1.7,0-3.5-1.2-4.7C63.1,50.2,61.9,49.7,60.6,49.7z"/>
	</g>
	<path class="st0" d="M42,74.1c-0.5,0-0.9-0.2-1.1-0.6L24.8,49.8c-2.8-3.8-4.3-8.2-4.3-12.9c0-11.9,9.7-21.6,21.6-21.6
		c11.1,0,20.4,8.3,21.5,19.3c0,0.4,0.1,0.9,0.1,1.3l0,0.5l0.5,0.1c8.8,1.8,15.2,9.6,15.2,18.6c0,10.5-8.5,19-19,19
		c-4.9,0-9.5-1.9-13-5.2l-0.5-0.5l-3.6,5.1C42.9,73.9,42.5,74.1,42,74.1z M60.3,38.9c-9,0-16.3,7.3-16.3,16.3
		c0,9,7.3,16.3,16.3,16.3c9,0,16.3-7.3,16.3-16.3C76.6,46.2,69.3,38.9,60.3,38.9z M42,18.1c-10.4,0-18.9,8.5-18.9,18.9
		c0,4.1,1.3,8,3.8,11.3l15.1,22.2l2.9-4.1l-0.2-0.3c-2.2-3.2-3.4-6.9-3.4-10.8c0-2.6,0.5-5.2,1.6-7.6l0.4-0.9l-1.3,0
		c-5.4,0-9.8-4.4-9.8-9.8c0-5.4,4.4-9.8,9.8-9.8s9.8,4.4,9.8,9.8l0,1.2l0.9-0.4c2.4-1,4.9-1.6,7.5-1.6l0.6,0l0-0.6
		c0-0.2,0-0.4,0-0.6C59.9,25.5,51.6,18.1,42,18.1z M42,29.8c-3.9,0-7.1,3.2-7.1,7.1S38.1,44,42,44c1.3,0,2.5-0.3,3.6-1l0.1-0.1
		l0.1-0.1c0.7-0.8,1.4-1.5,2.2-2.2l0.1-0.1l0.1-0.1c0.7-1.1,1-2.4,1-3.6C49.2,33,46,29.8,42,29.8z"/>
</g>
</svg>
