<?xml version="1.0" encoding="utf-8"?>
<!-- Generator: Adobe Illustrator 21.0.0, SVG Export Plug-In . SVG Version: 6.00 Build 0)  -->
<svg version="1.1" id="图层_1" xmlns="http://www.w3.org/2000/svg" xmlns:xlink="http://www.w3.org/1999/xlink" x="0px" y="0px"
	 viewBox="0 0 100 100" style="enable-background:new 0 0 100 100;" xml:space="preserve">
<style type="text/css">
	.st0{fill:#A0806A;}
	.st1{fill:none;stroke:#A0806A;stroke-width:3;stroke-miterlimit:10;}
	.st2{fill:#A0806A;stroke:#A0806A;stroke-miterlimit:10;}
	.st3{fill:none;stroke:#A0806A;stroke-width:2.6;stroke-miterlimit:10;}
	.st4{fill:none;}
</style>
<g>
	<g>
		<path class="st0" d="M69,78.3c-3.3,0-6.1-2.2-6.9-5.4l-0.2-0.8H39.1l-0.2,0.8c-0.8,3.2-3.7,5.4-6.9,5.4c-3.3,0-6.1-2.2-6.9-5.4
			l-0.2-0.8h-8.2V24.4h38.9v16.3h15.2l7.8,11.7l5.8,1.5v18.2h-8.2l-0.2,0.8C75.1,76.1,72.3,78.3,69,78.3z M69,66
			c-2.8,0-5.1,2.3-5.1,5.1s2.3,5.1,5.1,5.1s5.1-2.3,5.1-5.1S71.8,66,69,66z M31.9,66c-2.8,0-5.1,2.3-5.1,5.1s2.3,5.1,5.1,5.1
			s5.1-2.3,5.1-5.1S34.8,66,31.9,66z M69,63.9c3.3,0,6.1,2.2,6.9,5.4l0.2,0.8h6.1V55.6l-5-1.3l-7.7-11.4H55.5v27.2h6.4l0.2-0.8
			C62.9,66.1,65.7,63.9,69,63.9z M31.9,63.9c3.3,0,6.1,2.2,6.9,5.4l0.2,0.8h14.3V57.8H18.7v12.2h6.1l0.2-0.8
			C25.8,66.1,28.7,63.9,31.9,63.9z M18.7,55.8h34.7V26.5H41.2v12.3H30.9V26.5H18.7V55.8z M33,36.7h6.1V26.5H33V36.7z"/>
	</g>
</g>
</svg>
