<?xml version="1.0" encoding="utf-8"?>
<!-- Generator: Adobe Illustrator 21.0.0, SVG Export Plug-In . SVG Version: 6.00 Build 0)  -->
<svg version="1.1" id="图层_1" xmlns="http://www.w3.org/2000/svg" xmlns:xlink="http://www.w3.org/1999/xlink" x="0px" y="0px"
	 viewBox="0 0 100 100" style="enable-background:new 0 0 100 100;" xml:space="preserve">
<style type="text/css">
	.st0{fill:#A0806A;}
	.st1{fill:none;stroke:#A0806A;stroke-width:3;stroke-miterlimit:10;}
	.st2{fill:#A0806A;stroke:#A0806A;stroke-miterlimit:10;}
	.st3{fill:none;stroke:#A0806A;stroke-width:2.6;stroke-miterlimit:10;}
	.st4{fill:none;}
</style>
<g>
	<path class="st0" d="M27.9,78.6V20.9h45.8v57.7H27.9z M30.3,76.2h40.9V23.4H30.3V76.2z"/>
	<rect x="58.7" y="54.1" class="st0" width="4.6" height="2.4"/>
	<rect x="38.2" y="54.1" class="st0" width="14.8" height="2.4"/>
	<rect x="58.7" y="60.9" class="st0" width="4.6" height="2.4"/>
	<rect x="38.2" y="60.9" class="st0" width="14.8" height="2.4"/>
	<rect x="58.7" y="67.8" class="st0" width="4.6" height="2.4"/>
	<rect x="38.2" y="67.8" class="st0" width="14.8" height="2.4"/>
	<path class="st0" d="M50.2,49.5c-0.5-0.2-11.6-5.9-11.6-14.5c0-3.8,3.1-6.9,6.9-6.9c1.8,0,3.5,0.7,4.8,1.9l0.3,0.3l0.3-0.3
		c1.3-1.2,3-1.9,4.8-1.9c3.8,0,6.9,3.1,6.9,6.9c0,8.6-11.1,14.3-11.6,14.5l-0.5,0.3L50.2,49.5z M45.6,30.5c-2.5,0-4.5,2-4.5,4.5
		c0,3.6,2.7,6.8,5,8.8c1.7,1.5,3.5,2.6,4.4,3.1l0.3,0.1l0.3-0.1c2.8-1.6,9.4-6.1,9.4-11.9c0-2.5-2-4.5-4.5-4.5c-1.7,0-3.2,0.9-4,2.5
		l-0.3,0.7h-1.6l-0.3-0.7C48.8,31.4,47.3,30.5,45.6,30.5z"/>
</g>
</svg>
