<?xml version="1.0" encoding="utf-8"?>
<!-- Generator: Adobe Illustrator 21.0.0, SVG Export Plug-In . SVG Version: 6.00 Build 0)  -->
<svg version="1.1" id="图层_1" xmlns="http://www.w3.org/2000/svg" xmlns:xlink="http://www.w3.org/1999/xlink" x="0px" y="0px"
	 viewBox="0 0 100 100" style="enable-background:new 0 0 100 100;" xml:space="preserve">
<style type="text/css">
	.st0{fill:#A0806A;}
	.st1{fill:none;stroke:#A0806A;stroke-width:3;stroke-miterlimit:10;}
	.st2{fill:#A0806A;stroke:#A0806A;stroke-miterlimit:10;}
	.st3{fill:none;stroke:#A0806A;stroke-width:2.6;stroke-miterlimit:10;}
	.st4{fill:none;}
</style>
<g>
	<path class="st0" d="M25.9,75.9c-2.9,0-5.3-2.4-5.3-5.3V35.4c0-2.9,2.4-5.3,5.3-5.3h16.9v-4.5c0-4,3.2-7.2,7.2-7.2s7.2,3.2,7.2,7.2
		v4.5h16.9c2.9,0,5.3,2.4,5.3,5.3v35.2c0,2.9-2.4,5.3-5.3,5.3H25.9z M25.9,32.9c-1.4,0-2.6,1.1-2.6,2.6v35.2c0,1.4,1.1,2.6,2.6,2.6
		h48.3c1.4,0,2.6-1.1,2.6-2.6V35.4c0-1.4-1.1-2.6-2.6-2.6H57.3v6.5c0,0.7-0.6,1.4-1.4,1.4H44.2c-0.7,0-1.4-0.6-1.4-1.4v-6.5H25.9z
		 M50.1,21.1c-2.5,0-4.5,2-4.5,4.5V38h9V25.6C54.6,23.1,52.6,21.1,50.1,21.1z"/>
	<path class="st0" d="M58.5,52.4c-0.7,0-1.4-0.6-1.4-1.4s0.6-1.4,1.4-1.4h11.7c0.7,0,1.4,0.6,1.4,1.4s-0.6,1.4-1.4,1.4H58.5z"/>
	<path class="st0" d="M58.5,60.3c-0.7,0-1.4-0.6-1.4-1.4s0.6-1.4,1.4-1.4h11.7c0.7,0,1.4,0.6,1.4,1.4s-0.6,1.4-1.4,1.4H58.5z"/>
	<path class="st0" d="M58.5,68.1c-0.7,0-1.4-0.6-1.4-1.4s0.6-1.4,1.4-1.4h11.7c0.7,0,1.4,0.6,1.4,1.4s-0.6,1.4-1.4,1.4H58.5z"/>
	<path class="st0" d="M29.8,68.1c-0.7,0-1.4-0.6-1.4-1.4c0-4,2.2-7.8,5.8-9.7l0.7-0.4L34.4,56c-1.7-1.8-2.4-4.4-1.7-6.9
		c0.8-3.2,3.6-5.3,7-5.3c1.9,0,3.7,0.8,5.1,2.1c1.8,1.8,2.5,4.5,1.9,7.1c-0.3,1.1-0.9,2.2-1.7,3l-0.5,0.6L45,57
		c3.5,2,5.7,5.7,5.7,9.7c0,0.7-0.6,1.4-1.4,1.4H29.8z M39.6,58.3c-3.8,0-7.2,2.6-8.2,6.3l-0.2,0.8H48l-0.2-0.8
		C46.8,60.9,43.5,58.3,39.6,58.3z M39.6,46.6c-2.1,0-3.8,1.3-4.3,3.3c-0.4,1.6,0,3.3,1.2,4.4c0.9,0.9,2,1.3,3.2,1.3
		c0.4,0,0.8-0.1,1.2-0.2c1.5-0.4,2.7-1.6,3.1-3.1c0.4-1.6,0-3.3-1.2-4.4C42,47,40.8,46.6,39.6,46.6z"/>
	<circle class="st0" cx="50.1" cy="25.6" r="0.7"/>
</g>
</svg>
