<?xml version="1.0" encoding="utf-8"?>
<!-- Generator: Adobe Illustrator 21.0.0, SVG Export Plug-In . SVG Version: 6.00 Build 0)  -->
<svg version="1.1" id="图层_1" xmlns="http://www.w3.org/2000/svg" xmlns:xlink="http://www.w3.org/1999/xlink" x="0px" y="0px"
	 viewBox="0 0 100 100" style="enable-background:new 0 0 100 100;" xml:space="preserve">
<style type="text/css">
	.st0{fill:#A0806A;}
	.st1{fill:none;stroke:#A0806A;stroke-width:3;stroke-miterlimit:10;}
	.st2{fill:#A0806A;stroke:#A0806A;stroke-miterlimit:10;}
	.st3{fill:none;stroke:#A0806A;stroke-width:2.6;stroke-miterlimit:10;}
	.st4{fill:none;}
</style>
<g>
	<path class="st0" d="M63.4,20H36.6c-2.2,0-4.1,1.8-4.1,4.1v51.9c0,2.2,1.8,4.1,4.1,4.1h26.8c2.2,0,4.1-1.8,4.1-4.1V24.1
		C67.4,21.8,65.6,20,63.4,20L63.4,20z M45.7,22.9h8.6c0.3,0,0.5,0.2,0.5,0.5c0,0.3-0.2,0.5-0.5,0.5h-8.6c-0.3,0-0.5-0.2-0.5-0.5
		C45.2,23.1,45.4,22.9,45.7,22.9L45.7,22.9z M50,78c-1.1,0-2-0.9-2-2c0-1.1,0.9-2,2-2c1.1,0,2,0.9,2,2C52,77.1,51.1,78,50,78L50,78z
		 M64.6,72.5H35.4V26.4h29.2V72.5z"/>
</g>
</svg>
