<?xml version="1.0" encoding="utf-8"?>
<!-- Generator: Adobe Illustrator 21.0.0, SVG Export Plug-In . SVG Version: 6.00 Build 0)  -->
<svg version="1.1" id="图层_1" xmlns="http://www.w3.org/2000/svg" xmlns:xlink="http://www.w3.org/1999/xlink" x="0px" y="0px"
	 viewBox="0 0 150 150" style="enable-background:new 0 0 150 150;" xml:space="preserve">
<style type="text/css">
	.st0{fill:#A0806A;}
	.st1{fill-rule:evenodd;clip-rule:evenodd;fill:#A0806A;}
	.st2{fill:none;}
</style>
<g>
	<g>
		<g>
			<path class="st0" d="M92.2,99.7H57.8c-1.2,0-2.3-0.5-3.2-1.5c-1.1-1.3-1.6-3.1-1.4-4.9l3.4-25.7c0.4-2.7,2.3-4.7,4.6-4.7h27.6
				c2.3,0,4.2,2,4.6,4.7l3.4,25.7c0.2,1.8-0.3,3.7-1.4,4.9C94.6,99.1,93.4,99.7,92.2,99.7z M61.2,65.8c-0.7,0-1.5,0.9-1.6,2.1
				l-3.4,25.7c-0.1,1,0.1,2,0.7,2.6c0.2,0.2,0.5,0.5,1,0.5h34.4c0.4,0,0.7-0.3,1-0.5c0.5-0.6,0.8-1.6,0.7-2.6l-3.4-25.7
				c-0.2-1.2-0.9-2.1-1.6-2.1H61.2z"/>
		</g>
		<g>
			<path class="st0" d="M83.2,72c-0.8,0-1.5-0.7-1.5-1.5V60c0-3.7-3-6.7-6.7-6.7s-6.7,3-6.7,6.7v10.5c0,0.8-0.7,1.5-1.5,1.5
				s-1.5-0.7-1.5-1.5V60c0-5.3,4.3-9.7,9.7-9.7s9.7,4.3,9.7,9.7v10.5C84.7,71.3,84,72,83.2,72z"/>
		</g>
		<g>
			<circle class="st0" cx="66.8" cy="70.5" r="2.2"/>
		</g>
		<g>
			<circle class="st0" cx="83.2" cy="70.5" r="2.2"/>
		</g>
	</g>
</g>
</svg>
